<?xml version="1.0" encoding="utf-8"?>
<!-- Generator: Adobe Illustrator 12.0.1, SVG Export Plug-In . SVG Version: 6.00 Build 51448)  -->
<!DOCTYPE svg PUBLIC "-//W3C//DTD SVG 1.1//EN" "http://www.w3.org/Graphics/SVG/1.1/DTD/svg11.dtd" [
	<!ENTITY ns_svg "http://www.w3.org/2000/svg">
	<!ENTITY ns_xlink "http://www.w3.org/1999/xlink">
]>
<svg  version="1.1" id="SVGs" xmlns="&ns_svg;" xmlns:xlink="&ns_xlink;" width="216" height="165.995" viewBox="0 0 216 165.995"
	 overflow="visible" enable-background="new 0 0 216 165.995" xml:space="preserve">
<path fill="#636466" d="M215.995,82.963c0.136-4.554-2.111-8.794-6.443-13.126c-14.978-0.684-27.862,4.481-39.18,12.396
	c-5.725-4.014-26.543-18.252-40.223-22.702c1.56-1.256,3.039-2.276,4.413-2.998c4.612-2.431,9.226-4.663,13.344-6.84
	c20.824,23.772,56.547,8.836,56.547-23.005C199.323,12.188,189.984,0,173.869,0c7.569,0.54,12.105,8.024,13.606,17.526
	c2.722,17.236-12.999,26.308-24.792,18.143c1.126-9.801-1.937-19.182-8.237-25.813c-5.537-5.847-13.597-9.566-23.513-9.566
	c-21.168,0-29.333,22.679-43.847,48.378C74.667,70.662,54.274,87.562,36.145,99.559c11.934-4.626,38.545,2.936,48.823,2.936
	c4.336,0,11.349-6.867,19.055-15.367c13.149,4.513,30.988,15.748,39.27,20.77c-12.536,14.486-22.928,28.864-32.621,34.512
	c-22.796,13.289-62.148,5.452-72.118,3.629s-19.957-28.104-36.79-17.408C0.548,132.19,0,136.34,0,141.501
	c13.607,13.607,41.125,24.493,88.9,24.493s57.908-36.74,66.826-45.661c8.921-8.918,18.75,5.144,40.521-11.793
	C209.591,98.163,215.779,90.171,215.995,82.963z M152.356,97.945c-8.451-6.613-30.521-19.037-38.926-21.399
	c1.982-2.232,3.955-4.437,5.892-6.527c11.707,3.016,33.496,17.168,39.77,21.346C156.778,93.482,154.533,95.691,152.356,97.945z"/>
</svg>
